<svg xmlns="http://www.w3.org/2000/svg" viewBox="0 0 1920 506.65"><defs><style>.cls-1{opacity:0.11;}.cls-2,.cls-3,.cls-4{fill:#fff;}.cls-2{stroke:#000;}.cls-2,.cls-4{stroke-miterlimit:10;stroke-width:4px;}.cls-4{stroke:#227fff;}</style></defs><title>background_3</title><g id="Layer_2" data-name="Layer 2"><g id="Layer_2-2" data-name="Layer 2" class="cls-1"><rect class="cls-2" x="1086.07" y="25.29" width="393.43" height="479.35" rx="39.97" ry="39.97"/><rect class="cls-2" x="827.96" y="134.22" width="333.31" height="369.67" rx="38.46" ry="38.46"/><rect class="cls-2" x="86.16" y="85.48" width="393.43" height="418.67" rx="39.97" ry="39.97"/><path class="cls-2" d="M465.05,2H808.61a36.73,36.73,0,0,1,36.73,36.73V503.89a0,0,0,0,1,0,0h-417a0,0,0,0,1,0,0V38.73A36.73,36.73,0,0,1,465.05,2Z"/><rect class="cls-2" x="472.62" y="48.48" width="57.34" height="74.01"/><rect class="cls-2" x="561.03" y="48.48" width="57.34" height="74.01"/><rect class="cls-2" x="656.82" y="48.48" width="57.34" height="74.01"/><rect class="cls-2" x="745.24" y="48.48" width="57.34" height="74.01"/><rect class="cls-2" x="471.85" y="158.52" width="57.34" height="74.01"/><rect class="cls-2" x="560.26" y="158.52" width="57.34" height="74.01"/><rect class="cls-2" x="656.06" y="158.52" width="57.34" height="74.01"/><rect class="cls-2" x="744.47" y="158.52" width="57.34" height="74.01"/><rect class="cls-2" x="472.23" y="268.56" width="57.34" height="74.01"/><rect class="cls-2" x="560.65" y="268.56" width="57.34" height="74.01"/><rect class="cls-2" x="656.44" y="268.56" width="57.34" height="74.01"/><rect class="cls-2" x="744.85" y="268.56" width="57.34" height="74.01"/><rect class="cls-2" x="471.47" y="378.6" width="57.34" height="74.01"/><rect class="cls-2" x="559.88" y="378.6" width="57.34" height="74.01"/><rect class="cls-2" x="655.67" y="378.6" width="57.34" height="74.01"/><rect class="cls-2" x="744.09" y="378.6" width="57.34" height="74.01"/><path class="cls-2" d="M1387.3,100h262.11a36.73,36.73,0,0,1,36.73,36.73V503.89a0,0,0,0,1,0,0H1350.57a0,0,0,0,1,0,0V136.75A36.73,36.73,0,0,1,1387.3,100Z"/><rect class="cls-2" x="1386.21" y="137.42" width="46.14" height="59.56"/><rect class="cls-2" x="1457.36" y="137.42" width="46.14" height="59.56"/><rect class="cls-2" x="1534.44" y="137.42" width="46.14" height="59.56"/><rect class="cls-2" x="1605.59" y="137.42" width="46.14" height="59.56"/><rect class="cls-2" x="1385.59" y="225.97" width="46.14" height="59.56"/><rect class="cls-2" x="1456.74" y="225.97" width="46.14" height="59.56"/><rect class="cls-2" x="1533.82" y="225.97" width="46.14" height="59.56"/><rect class="cls-2" x="1604.97" y="225.97" width="46.14" height="59.56"/><rect class="cls-2" x="1385.9" y="314.52" width="46.14" height="59.56"/><rect class="cls-2" x="1457.05" y="314.52" width="46.14" height="59.56"/><rect class="cls-2" x="1534.13" y="314.52" width="46.14" height="59.56"/><rect class="cls-2" x="1605.28" y="314.52" width="46.14" height="59.56"/><rect class="cls-2" x="1385.29" y="403.07" width="46.14" height="59.56"/><rect class="cls-2" x="1456.43" y="403.07" width="46.14" height="59.56"/><rect class="cls-2" x="1533.52" y="403.07" width="46.14" height="59.56"/><rect class="cls-2" x="1604.66" y="403.07" width="46.14" height="59.56"/><path class="cls-2" d="M100.73,49.22H2.13V504.63h98.6c29,0,52.54-23.85,52.54-53.28V102.5C153.27,73.08,129.75,49.22,100.73,49.22Z"/><path class="cls-2" d="M1917.69,48.48H1703.62c-29.17,0-52.82,23.85-52.82,53.28V450.61c0,29.42,23.65,53.28,52.82,53.28l214.07.26Z"/><rect class="cls-3" x="1907.37" y="50.51" width="12.63" height="454.54"/><rect class="cls-3" y="51.15" width="12.63" height="453.48"/></g><g id="Layer_1-2" data-name="Layer 1"><rect class="cls-4" x="1178.64" y="282.24" width="58.68" height="7.05"/><polygon class="cls-4" points="1224.18 329.88 1191.79 329.88 1184.95 289.29 1231.01 289.29 1224.18 329.88"/><polygon class="cls-4" points="1222.72 271.62 1193.25 271.62 1190 282.24 1225.97 282.24 1222.72 271.62"/><rect class="cls-4" x="1201.57" y="329.89" width="12.82" height="174"/><line class="cls-4" y1="504.15" x2="1920" y2="504.15"/><rect class="cls-4" x="479.59" y="392.39" width="17.71" height="111.66"/><rect class="cls-4" x="597.23" y="392.39" width="17.71" height="111.66"/><rect class="cls-4" x="454.55" y="403.59" width="184.11" height="17.76"/><rect class="cls-4" x="454.55" y="431.83" width="184.11" height="17.76"/><path class="cls-4" d="M454.55,460.07H638.66a0,0,0,0,1,0,0v0a11.47,11.47,0,0,1-11.47,11.47H466a11.47,11.47,0,0,1-11.47-11.47v0a0,0,0,0,1,0,0Z"/><rect class="cls-4" x="293.84" y="419.86" width="64.87" height="84.19"/><rect class="cls-4" x="293.84" y="438.34" width="21.4" height="47.45"/><path class="cls-4" d="M290,370.87v11.21h28.32v16.13L290,408v11.84h73.48v-49l-.54-.48a54.46,54.46,0,0,0-72.94.48Z"/><rect class="cls-4" x="886.83" y="424.9" width="167.23" height="51.69"/><rect class="cls-4" x="854.81" y="255.77" width="32.02" height="193.85"/><rect class="cls-4" x="846.93" y="449.62" width="47.77" height="13.48"/><rect class="cls-4" x="841.12" y="463.11" width="59.4" height="13.48"/><rect class="cls-4" x="846.93" y="242.28" width="47.77" height="13.48" transform="translate(1741.64 498.05) rotate(180)"/><rect class="cls-4" x="841.12" y="228.8" width="59.4" height="13.48" transform="translate(1741.64 471.09) rotate(180)"/><rect class="cls-4" x="1054.06" y="255.77" width="32.02" height="193.85"/><rect class="cls-4" x="1046.18" y="449.62" width="47.77" height="13.48"/><rect class="cls-4" x="1040.36" y="463.11" width="59.4" height="13.48"/><rect class="cls-4" x="1046.18" y="242.28" width="47.77" height="13.48" transform="translate(2140.13 498.05) rotate(180)"/><rect class="cls-4" x="1040.36" y="228.8" width="59.4" height="13.48" transform="translate(2140.13 471.09) rotate(180)"/><rect class="cls-4" x="821.3" y="214.38" width="297.51" height="14.42"/><rect class="cls-4" x="821.3" y="476.59" width="297.51" height="28.06"/><path class="cls-4" d="M1011.64,315.23h0a60.68,60.68,0,0,0-82.4,0h0V424.9h82.4Z"/><polygon class="cls-4" points="970.05 171.09 1060.92 214.38 1099.77 214.38 970.44 152.76 841.12 214.38 879.18 214.38 970.05 171.09"/><rect class="cls-4" x="697.73" y="282.24" width="58.68" height="7.05"/><polygon class="cls-4" points="743.26 329.88 710.87 329.88 704.04 289.29 750.1 289.29 743.26 329.88"/><polygon class="cls-4" points="741.81 271.62 712.33 271.62 709.08 282.24 745.05 282.24 741.81 271.62"/><rect class="cls-4" x="720.66" y="329.89" width="12.82" height="174"/><rect class="cls-4" x="1301.4" y="392.23" width="17.71" height="111.66"/><rect class="cls-4" x="1419.03" y="392.23" width="17.71" height="111.66"/><rect class="cls-4" x="1276.36" y="403.43" width="184.11" height="17.76"/><rect class="cls-4" x="1276.36" y="431.67" width="184.11" height="17.76"/><path class="cls-4" d="M1276.36,459.91h184.11a0,0,0,0,1,0,0v0A11.47,11.47,0,0,1,1449,471.38H1287.82a11.47,11.47,0,0,1-11.47-11.47v0A0,0,0,0,1,1276.36,459.91Z"/><rect class="cls-4" x="1539.41" y="419.7" width="64.87" height="84.19"/><rect class="cls-4" x="1539.41" y="438.18" width="21.4" height="47.45"/><path class="cls-4" d="M1535.6,370.71v11.21h28.32v16.13l-28.32,9.81V419.7h73.48v-49l-.55-.48a54.45,54.45,0,0,0-72.93.48Z"/><path class="cls-4" d="M1790.07,285.89c0-.3,0-.59,0-.88,0-31-21.86-56.21-48.82-56.21S1692.43,254,1692.43,285c0,.4,0,.8,0,1.21a53.09,53.09,0,1,0,55.09,81.48,72.65,72.65,0,0,0,25.24,4.42c31.92,0,57.8-19.75,57.8-44.12C1830.58,308.23,1813.55,291.5,1790.07,285.89Z"/><path class="cls-4" d="M1725.56,310h1.69a28.7,28.7,0,0,1,28.7,28.7V504.15a0,0,0,0,1,0,0h-30.39a0,0,0,0,1,0,0V310A0,0,0,0,1,1725.56,310Z"/><path class="cls-4" d="M1476.55,135.53a50,50,0,0,0-46.59,28A10.91,10.91,0,0,1,1416,168.8a34.61,34.61,0,1,0-12.84,66.74h71.72a50,50,0,0,0,1.65-100Z"/><path class="cls-4" d="M1365.38,110.51a25,25,0,0,0-23.29,14,5.44,5.44,0,0,1-7,2.62,17.31,17.31,0,1,0-6.42,33.38h35.86a25,25,0,0,0,.82-50Z"/><path class="cls-4" d="M425.72,122.51a39.25,39.25,0,0,0-36.57,22,8.56,8.56,0,0,1-10.94,4.11A27.17,27.17,0,1,0,368.12,201h56.3a39.27,39.27,0,0,0,1.3-78.51Z"/><path class="cls-4" d="M523.38,139.83a43.75,43.75,0,0,0-40.76,24.52,9.56,9.56,0,0,1-12.2,4.59,30.28,30.28,0,1,0-11.24,58.39h62.75a43.76,43.76,0,0,0,1.45-87.5Z"/><rect class="cls-4" x="45.13" y="294.82" width="157.57" height="14.77"/><path class="cls-4" d="M123.91,224.79a70,70,0,0,0-70,70H193.94A70,70,0,0,0,123.91,224.79Z"/><rect class="cls-4" x="66.16" y="309.59" width="114.29" height="102.88"/><rect class="cls-4" x="45.13" y="412.47" width="157.57" height="91.42"/><rect class="cls-4" x="45.13" y="438.34" width="157.57" height="65.55"/><rect class="cls-4" x="1825.24" y="490.93" width="92.23" height="12.96"/><polygon class="cls-4" points="1876.44 370.55 1866.28 370.55 1837.88 490.93 1904.84 490.93 1876.44 370.55"/><polygon class="cls-4" points="1852.08 430.74 1890.64 430.74 1884.32 403.97 1858.39 403.97 1852.08 430.74"/><polygon class="cls-4" points="301.05 283.88 316.98 275.23 271.93 256.15 301.05 283.88"/><polygon class="cls-4" points="271.93 256.15 325.22 270.75 337.15 264.27 271.93 256.15"/><polyline class="cls-4" points="316.98 275.23 323.81 287.63 325.22 270.75"/><line class="cls-4" x1="323.81" y1="287.63" x2="309.89" y2="279.19"/><path class="cls-4" d="M11.38,132.85l3-.15a60.68,60.68,0,0,1,43.36,15.19h0l.42-.4a50.83,50.83,0,0,1,42.67-13.37h0"/><path class="cls-4" d="M1853.36,89.1a35.68,35.68,0,0,0-33.27,20,7.79,7.79,0,0,1-9.95,3.74,24.72,24.72,0,1,0-9.18,47.67h51.22a35.72,35.72,0,0,0,1.18-71.42Z"/></g></g></svg>